<?xml version="1.0" standalone="no"?>
<!DOCTYPE svg PUBLIC "-//W3C//DTD SVG 20010904//EN"
 "http://www.w3.org/TR/2001/REC-SVG-20010904/DTD/svg10.dtd">
<svg version="1.0" xmlns="http://www.w3.org/2000/svg"
 width="200.000000pt" height="229.000000pt" viewBox="0 0 200.000000 229.000000"
 preserveAspectRatio="xMidYMid meet">

<g transform="translate(0.000000,229.000000) scale(0.100000,-0.100000)"
fill="#000000" stroke="none">
<path d="M18 2283 c12 -2 30 -2 40 0 9 3 -1 5 -23 4 -22 0 -30 -2 -17 -4z"/>
<path d="M1952 2283 c34 -4 37 -7 41 -41 l4 -37 1 43 2 42 -42 -2 -43 -1 37
-4z"/>
<path d="M967 2264 c-4 -4 -7 -15 -7 -24 0 -24 -30 -48 -65 -52 -24 -2 -31 -9
-35 -33 -3 -16 -14 -47 -23 -67 -9 -21 -17 -44 -17 -53 0 -8 -4 -23 -9 -33 -9
-16 -31 -143 -31 -177 0 -11 7 -15 23 -13 21 3 22 7 21 85 -1 45 3 80 7 77 5
-3 9 -18 9 -34 0 -16 4 -31 9 -34 4 -3 11 -27 14 -53 3 -27 8 -57 11 -68 5
-15 -8 -36 -49 -80 -33 -36 -55 -69 -55 -83 0 -24 -33 -97 -48 -106 -17 -10
-60 49 -76 104 -9 30 -21 70 -27 88 -6 19 -9 34 -7 36 1 1 16 6 32 11 16 6 34
18 40 28 26 42 -74 75 -138 45 -34 -15 -44 -47 -20 -65 14 -10 19 -27 19 -66
1 -46 22 -110 82 -246 5 -11 0 -12 -23 -7 -58 14 -99 43 -123 85 -22 40 -23
54 -28 269 -4 212 -3 229 15 265 27 50 9 57 -32 13 -48 -50 -56 -99 -58 -351
-2 -176 0 -226 12 -252 8 -18 20 -33 25 -33 6 0 34 -18 63 -39 29 -22 61 -43
72 -46 29 -9 25 -21 -11 -34 -47 -16 -55 -14 -93 24 -20 19 -42 35 -49 35 -8
0 -17 14 -21 33 -3 17 -26 88 -50 157 -75 212 -95 280 -81 280 18 0 45 34 45
57 0 11 -11 35 -25 54 -14 19 -32 50 -41 69 -21 46 -22 47 -38 25 -13 -18 -15
-18 -41 13 -31 37 -49 42 -40 11 4 -11 8 -42 10 -67 13 -161 27 -197 76 -190
28 4 30 3 49 -66 12 -39 41 -127 67 -196 38 -103 46 -138 47 -198 1 -39 0 -72
-2 -72 -1 0 -14 8 -29 17 -33 22 -103 20 -210 -6 -45 -10 -87 -22 -93 -26 -17
-11 -11 -82 11 -125 19 -36 23 -39 34 -24 11 16 14 15 35 -6 15 -15 25 -19 28
-12 5 17 42 -4 42 -25 0 -12 -7 -14 -37 -10 -56 9 -75 -10 -67 -62 10 -63 63
-90 108 -56 17 13 22 12 48 -10 16 -14 36 -25 44 -25 9 0 14 -10 14 -27 0 -47
40 -175 81 -259 38 -78 39 -82 25 -120 -55 -157 -151 -264 -237 -264 -10 0
-23 -9 -29 -19 -18 -35 7 -73 69 -104 45 -22 57 -21 85 6 12 13 43 29 67 36
48 15 146 109 201 193 26 40 33 45 49 35 10 -6 26 -26 36 -45 17 -32 17 -34 1
-43 -30 -17 -22 -46 17 -59 28 -9 35 -17 35 -38 0 -48 -11 -70 -41 -83 -32
-13 -49 -36 -49 -68 0 -27 76 -66 97 -50 9 8 13 8 13 0 0 -22 57 -11 83 15 48
48 66 102 74 218 5 85 9 109 22 114 29 11 176 110 197 134 12 13 28 36 36 51
l14 28 28 -60 c32 -66 31 -99 -5 -157 -14 -23 -32 -37 -58 -44 -49 -13 -73
-40 -69 -77 2 -21 9 -29 27 -31 14 -2 35 -11 47 -19 21 -13 27 -13 54 0 16 9
43 18 60 22 41 9 115 97 130 155 7 25 19 57 28 72 13 22 14 33 4 64 -6 21 -10
39 -9 40 1 2 44 -26 95 -61 51 -34 119 -73 152 -85 32 -12 65 -29 73 -38 42
-49 22 -122 -33 -122 -32 0 -60 -23 -60 -49 0 -21 22 -53 35 -50 6 1 17 0 25
-3 85 -29 77 -29 128 14 26 22 50 46 54 52 11 19 19 205 9 224 -5 9 -31 30
-59 46 -61 36 -81 67 -90 150 -9 74 -1 79 18 11 45 -162 212 -208 279 -78 18
34 13 104 -14 205 -27 101 -29 127 -19 204 4 37 3 54 -7 59 -17 11 -65 -47
-73 -89 -7 -35 15 -185 38 -259 21 -69 -2 -117 -54 -117 -49 0 -90 66 -134
220 -25 86 -60 152 -100 189 l-26 24 35 38 c30 33 55 92 59 140 1 9 12 28 24
44 12 15 22 33 22 40 0 6 12 22 26 36 45 41 67 98 80 203 8 65 17 104 28 115
15 14 18 14 26 1 7 -11 12 -12 21 -3 24 24 -14 43 -55 27 -9 -3 -32 -37 -52
-75 l-37 -69 -14 26 c-12 23 -11 35 2 80 8 28 15 62 15 73 0 12 7 24 15 27 8
4 15 13 15 20 0 8 8 18 18 21 31 12 42 37 41 98 -2 60 -12 95 -28 95 -5 0 -32
-22 -60 -50 -53 -52 -62 -80 -39 -123 19 -36 20 -78 2 -150 -13 -54 -21 -70
-40 -77 -13 -5 -34 -27 -48 -48 -19 -30 -34 -41 -68 -50 -70 -18 -98 -23 -98
-17 0 3 20 34 44 69 24 35 49 81 56 103 14 44 30 65 30 41 0 -9 5 -20 11 -24
8 -5 10 3 5 27 -3 19 -8 47 -10 62 -1 15 -13 35 -24 43 -28 19 -28 32 1 36 12
2 22 10 22 18 0 8 4 21 9 28 10 16 -21 83 -37 81 -7 -1 -20 2 -31 6 -11 5 -26
3 -37 -3 -10 -7 -27 -12 -38 -12 -23 0 -35 -31 -25 -62 4 -13 7 -31 5 -40 -1
-10 4 -18 11 -19 7 -1 22 -2 33 -3 13 0 18 -6 16 -16 -3 -8 -6 -40 -6 -70 -1
-30 -3 -60 -4 -67 -2 -18 -61 -83 -75 -82 -6 0 -24 28 -41 62 -39 81 -71 121
-122 154 -24 15 -56 44 -73 65 -26 32 -29 41 -19 59 6 13 8 39 5 63 -5 29 -2
52 9 72 17 33 20 100 5 138 -22 59 -88 86 -124 51 -18 -19 -26 -19 -26 -1 0 8
-6 21 -12 28 -7 8 -18 23 -24 33 -11 21 -44 31 -57 19z m33 -24 c0 -5 -4 -10
-10 -10 -5 0 -10 5 -10 10 0 6 5 10 10 10 6 0 10 -4 10 -10z m30 -45 c11 -13
6 -15 -36 -15 -49 0 -52 14 -4 23 14 2 26 5 26 6 1 0 7 -6 14 -14z m141 -41
c20 -21 24 -36 24 -84 0 -37 -5 -64 -14 -72 -11 -11 -13 -9 -8 12 20 87 19 98
-3 120 -16 16 -30 21 -51 18 -18 -3 -29 0 -29 7 0 34 49 33 81 -1z m-261 -5
c0 -24 -23 -21 -28 4 -2 10 3 17 12 17 10 0 16 -9 16 -21z m139 2 c9 -6 3 -10
-22 -13 -40 -4 -57 0 -57 13 0 11 60 12 79 0z m-83 -38 c-7 -7 -26 7 -26 19 0
6 6 6 15 -2 9 -7 13 -15 11 -17z m182 5 c14 -14 16 -78 2 -78 -5 0 -10 11 -10
24 0 13 -7 29 -15 36 -8 7 -15 16 -15 21 0 13 24 11 38 -3z m-45 -26 c9 -8 17
-26 17 -39 0 -19 -3 -21 -17 -14 -10 5 -34 16 -54 25 -45 19 -57 43 -26 48 31
5 59 -2 80 -20z m-153 -11 c5 -11 10 -35 9 -53 -1 -34 -3 -32 -13 15 -5 22
-12 28 -29 25 -18 -2 -22 -10 -22 -35 0 -18 -3 -33 -7 -33 -12 0 -14 58 -3 88
7 19 53 14 65 -7z m46 -16 c4 -8 15 -15 26 -15 14 0 19 -6 16 -22 -2 -18 -8
-22 -28 -20 -30 5 -26 0 -33 40 -7 32 8 46 19 17z m-136 -60 c0 -17 -2 -17
-10 -5 -5 8 -10 24 -10 35 0 17 2 17 10 5 5 -8 10 -24 10 -35z m70 19 c0 -8
-4 -12 -10 -9 -5 3 -10 10 -10 16 0 5 5 9 10 9 6 0 10 -7 10 -16z m-736 -60
c24 -42 24 -43 4 -50 -11 -3 -20 -4 -22 -2 -5 8 -36 104 -36 112 0 16 29 -16
54 -60z m901 56 c3 -5 15 -10 25 -10 24 0 34 -16 15 -24 -8 -3 -27 6 -42 19
-16 13 -23 25 -16 25 6 0 15 -4 18 -10z m-856 -57 c38 -57 39 -70 4 -86 -16
-6 -32 -17 -36 -24 -18 -28 -59 0 -56 39 0 10 2 10 6 1 6 -15 43 -17 43 -3 0
6 9 10 19 10 32 0 34 17 6 57 -23 35 -31 53 -21 53 2 0 18 -21 35 -47z m192
-273 c4 -100 3 -105 -16 -105 -19 0 -20 6 -19 110 1 61 5 155 10 210 l8 100 7
-105 c4 -58 8 -152 10 -210z m642 296 c3 -8 -1 -20 -9 -26 -12 -10 -14 -8 -14
14 0 28 14 35 23 12z m-136 -22 c-3 -4 -14 -3 -24 0 -15 6 -15 8 -3 16 16 10
39 -4 27 -16z m78 16 c4 -6 -5 -10 -19 -10 -14 0 -26 5 -26 10 0 6 9 10 19 10
11 0 23 -4 26 -10z m-128 -27 c2 -6 -3 -13 -12 -16 -10 -5 -15 0 -15 14 0 21
21 22 27 2z m281 -11 c6 -9 12 -24 12 -35 0 -16 -5 -14 -29 12 -16 17 -36 31
-46 31 -9 0 -14 4 -11 9 8 13 59 1 74 -17z m-132 -17 c3 -14 17 -34 30 -44 56
-44 8 -181 -63 -181 -29 0 -86 50 -107 94 -19 40 -21 112 -3 123 24 16 73 31
104 32 27 1 34 -3 39 -24z m85 -5 c27 -15 24 -26 -7 -25 -29 2 -57 35 -29 35
9 0 25 -5 36 -10z m718 -49 c-15 -5 -22 6 -14 19 6 9 10 9 16 -1 5 -8 4 -15
-2 -18z m-276 -13 c5 -19 8 -20 23 -7 16 12 17 12 11 -3 -3 -10 -2 -20 4 -23
6 -4 6 -13 0 -23 -7 -12 -24 -17 -56 -18 -30 -1 -42 2 -34 7 11 7 9 12 -8 24
-30 21 -29 37 1 29 18 -4 25 -1 29 15 7 27 23 27 30 -1z m-433 -18 c0 -16 -4
-30 -10 -30 -5 0 -10 14 -10 30 0 17 5 30 10 30 6 0 10 -13 10 -30z m-310 1
c0 -6 -4 -13 -10 -16 -5 -3 -10 1 -10 9 0 9 5 16 10 16 6 0 10 -4 10 -9z
m1015 -1 c8 -13 -5 -13 -25 0 -13 8 -13 10 2 10 9 0 20 -4 23 -10z m13 -54 c4
-18 -13 -22 -23 -6 -3 6 -22 10 -41 10 -23 0 -34 5 -34 14 0 32 91 15 98 -18z
m-1258 4 c4 0 10 7 14 15 7 19 17 19 42 0 16 -13 17 -16 4 -25 -18 -12 -90
-13 -109 -1 -10 7 -8 12 10 25 21 15 24 15 27 1 2 -8 7 -15 12 -15z m592 13
c10 -9 18 -21 18 -28 0 -11 48 -51 84 -70 39 -20 27 -34 -13 -14 -22 10 -44
19 -48 19 -4 0 -28 18 -53 39 -38 34 -43 41 -31 55 17 20 20 20 43 -1z m633
-43 c3 -5 -2 -19 -12 -30 -19 -19 -19 -19 -30 10 -11 28 -10 30 12 30 13 0 27
-4 30 -10z m-685 -15 c0 -8 -4 -15 -10 -15 -5 0 -10 7 -10 15 0 8 5 15 10 15
6 0 10 -7 10 -15z m-240 -45 c-11 -25 -61 -60 -87 -60 -5 0 15 24 56 66 39 39
49 38 31 -6z m285 20 c3 -5 -1 -10 -10 -10 -9 0 -13 5 -10 10 3 6 8 10 10 10
2 0 7 -4 10 -10z m410 -20 c17 0 20 -26 5 -35 -5 -3 -10 -20 -10 -36 0 -41
-22 -33 -32 12 -4 19 -5 47 -2 63 5 25 8 27 16 13 5 -9 16 -17 23 -17z m-981
-2 c19 -73 -12 -116 -33 -46 -9 30 -10 43 0 54 16 20 26 18 33 -8z m336 -8 c0
-5 -7 -7 -15 -4 -8 4 -12 10 -9 15 6 11 24 2 24 -11z m160 6 c0 -19 -57 -66
-79 -66 -19 0 -61 27 -61 40 0 5 15 6 33 3 24 -3 39 1 57 16 29 24 50 27 50 7z
m90 -26 c0 -5 -9 -6 -20 -3 -11 3 -17 9 -15 14 7 10 35 1 35 -11z m84 -6 c58
-29 101 -67 122 -106 23 -44 16 -56 -9 -16 -26 44 -57 69 -126 103 -28 15 -51
30 -51 36 0 13 7 12 64 -17z m-144 0 c0 -23 -55 -74 -79 -74 -27 0 -27 17 -1
25 11 3 32 19 47 36 32 34 33 34 33 13z m-202 -13 c3 -8 -1 -12 -9 -9 -7 2
-15 10 -17 17 -3 8 1 12 9 9 7 -2 15 -10 17 -17z m250 -19 c2 -7 -2 -10 -12
-6 -9 3 -16 11 -16 16 0 13 23 5 28 -10z m-314 -19 c-4 -16 -14 -38 -21 -50
-10 -15 -14 -42 -11 -83 3 -61 -5 -78 -18 -37 -3 12 -15 34 -25 49 -32 44 -18
93 37 128 40 25 45 24 38 -7z m417 -2 c44 -28 99 -81 85 -81 -4 0 -20 8 -34
19 -15 10 -51 30 -80 45 -29 15 -50 31 -47 36 10 16 29 12 76 -19z m-310 4
c-1 -15 -24 -12 -29 3 -3 9 2 13 12 10 10 -1 17 -7 17 -13z m-57 -10 c-4 -8
-10 -12 -15 -9 -14 8 -10 24 6 24 9 0 12 -6 9 -15z m254 -13 c2 -7 -2 -10 -12
-6 -9 3 -16 11 -16 16 0 13 23 5 28 -10z m-539 -11 c8 -14 7 -20 -4 -25 -15
-5 -39 26 -28 38 11 11 22 7 32 -13z m385 -12 c-10 -16 -24 -9 -24 12 0 18 2
19 15 9 8 -7 12 -16 9 -21z m236 1 c39 -20 47 -34 53 -90 2 -22 -2 -25 -32
-28 -41 -4 -51 8 -51 65 0 23 -4 45 -10 48 -5 3 -10 1 -10 -4 0 -6 -4 -11 -9
-11 -5 0 -7 9 -4 20 7 25 14 25 63 0z m309 -11 c-12 -24 -29 -25 -29 -1 0 24
8 32 26 25 10 -4 11 -10 3 -24z m-589 1 c13 -24 37 -26 62 -3 10 9 21 14 23
11 7 -7 -44 -68 -56 -68 -16 0 -59 48 -59 65 0 21 17 19 30 -5z m114 -47 c-16
-44 -36 -78 -57 -95 -36 -31 -48 -33 -65 -16 -18 18 -15 33 3 18 34 -28 97 43
119 133 3 15 11 27 16 27 5 0 -2 -30 -16 -67z m-630 17 c28 -43 32 -65 14 -76
-28 -17 -85 85 -61 109 12 13 20 7 47 -33z m440 24 c10 -26 7 -79 -6 -92 -20
-20 1 -26 23 -6 22 19 22 19 14 -6 -18 -60 -24 -70 -40 -63 -22 8 -35 45 -35
99 0 66 28 109 44 68z m266 6 c0 -5 -11 -34 -24 -65 -42 -94 -62 -57 -22 39
13 32 46 51 46 26z m-465 -67 c62 -64 61 -105 -2 -81 -23 8 -36 24 -51 61 -35
82 -13 90 53 20z m505 11 c0 -8 -6 -14 -13 -14 -19 0 -27 10 -20 25 6 17 33 8
33 -11z m156 -6 c4 -12 1 -24 -7 -29 -16 -10 -29 7 -29 38 0 28 26 21 36 -9z
m177 26 c4 -4 -12 -33 -35 -65 -33 -48 -46 -59 -69 -59 -19 0 -32 7 -40 22
-10 19 -8 24 12 41 74 57 116 77 132 61z m-756 -56 c36 -61 33 -73 -6 -28 -36
41 -43 60 -21 60 4 0 17 -15 27 -32z m967 24 c7 -12 -5 -52 -15 -52 -5 0 -7
11 -3 25 4 15 2 25 -4 25 -14 0 -25 -36 -17 -59 8 -26 -30 -50 -39 -25 -9 23
31 94 54 94 10 0 21 -4 24 -8z m-714 -11 c0 -10 -34 -41 -45 -41 -12 0 -25 21
-25 39 0 4 16 7 35 7 19 -1 35 -3 35 -5z m172 -29 c25 -21 35 -119 14 -140
-23 -23 -116 -44 -116 -27 0 7 19 19 42 27 23 7 44 19 46 27 3 8 0 11 -7 7 -6
-4 -25 -11 -41 -16 -42 -12 -40 14 2 29 37 13 70 40 62 52 -2 4 -21 -3 -42
-17 -44 -30 -51 -20 -27 41 17 46 30 49 67 17z m593 -25 c-16 -34 -105 -145
-105 -132 0 8 62 114 94 159 25 37 33 18 11 -27z m-1268 25 c17 -11 -10 -44
-31 -36 -18 7 -18 7 -10 28 7 17 22 20 41 8z m829 -28 c-5 -14 -9 -15 -19 -5
-9 9 -9 14 3 21 18 11 24 6 16 -16z m-648 -43 c14 -9 11 -10 -16 -11 -18 0
-42 -5 -52 -10 -23 -12 -57 -5 -88 18 -21 16 -21 19 -7 39 l16 23 65 -25 c35
-13 72 -29 82 -34z m602 35 c0 -15 -21 -26 -51 -26 -18 0 -26 20 -12 33 12 13
63 7 63 -7z m-210 -6 c0 -5 -7 -10 -15 -10 -8 0 -15 5 -15 10 0 6 7 10 15 10
8 0 15 -4 15 -10z m-331 -44 c-26 -12 -33 -3 -19 24 11 21 12 21 25 3 12 -16
11 -19 -6 -27z m876 18 c0 -10 -8 -20 -18 -22 -22 -4 -35 27 -16 39 20 12 34
5 34 -17z m-610 -39 c-6 -38 -10 -45 -24 -39 -9 4 -28 7 -43 7 -25 0 -28 3
-28 34 0 30 2 32 20 21 16 -10 24 -9 47 9 15 11 29 19 31 18 2 -2 0 -24 -3
-50z m546 23 c14 -22 11 -25 -49 -42 -82 -23 -96 -21 -131 19 -17 20 -31 37
-31 38 0 1 46 1 101 0 73 -1 104 -5 110 -15z m215 -6 c-15 -28 -46 -61 -46
-48 0 8 50 76 56 76 3 0 -2 -13 -10 -28z m-926 8 c21 -11 17 -40 -5 -40 -17 0
-38 27 -30 40 8 13 12 13 35 0z m220 0 c0 -5 -4 -10 -9 -10 -6 0 -13 5 -16 10
-3 6 1 10 9 10 9 0 16 -4 16 -10z m233 -9 c2 -11 1 -38 -3 -61 -8 -44 -62
-109 -119 -143 -29 -17 -30 -17 -41 4 -10 17 -7 27 14 57 43 60 50 68 79 86
29 19 37 42 12 32 -10 -3 -15 1 -15 14 0 13 9 20 28 23 15 2 30 5 33 6 4 0 9
-8 12 -18z m358 -33 c-32 -57 -60 -78 -104 -78 -36 0 -103 28 -91 38 5 4 48
20 96 35 47 15 92 34 98 42 28 34 28 11 1 -37z m-239 -44 c38 -24 73 -44 79
-44 9 0 4 -37 -7 -49 -6 -7 -100 30 -136 55 -35 24 -37 29 -36 77 0 51 0 52
16 28 9 -13 47 -44 84 -67z m-1002 37 c22 -21 40 -41 40 -45 0 -3 -14 -6 -32
-6 -49 0 -98 57 -71 83 12 13 23 7 63 -32z m257 -6 l-11 -36 -60 3 c-32 2 -61
8 -63 14 -5 14 83 53 119 54 25 0 26 -1 15 -35z m132 11 l22 -23 -31 -27 c-37
-31 -97 -36 -107 -9 -9 23 18 66 47 74 40 11 45 10 69 -15z m81 -45 c0 -39 -9
-60 -30 -71 -16 -9 -18 -6 -13 33 7 58 10 67 28 67 10 0 15 -10 15 -29z m160
0 c0 -35 -9 -61 -21 -61 -10 0 -12 34 -3 68 9 32 24 27 24 -7z m-797 3 c-5
-14 -2 -16 22 -10 23 6 27 4 21 -10 -5 -13 -2 -15 14 -11 13 3 20 0 20 -9 0
-8 5 -14 10 -14 6 0 10 5 10 10 0 6 16 10 35 10 44 0 45 -16 1 -34 -22 -9 -37
-24 -44 -44 -6 -18 -27 -41 -51 -57 -23 -14 -41 -29 -41 -34 0 -5 -13 -16 -29
-24 l-30 -15 -3 37 c-3 34 -6 37 -62 56 -71 24 -83 45 -58 104 14 33 23 41 57
49 22 5 61 10 87 11 40 1 46 -2 41 -15z m725 -28 c-4 -28 -55 -35 -65 -10 -9
25 34 59 54 43 8 -7 13 -22 11 -33z m737 25 c-3 -6 -11 -11 -17 -11 -6 0 -6 6
2 15 14 17 26 13 15 -4z m-1190 0 c3 -6 -3 -15 -14 -20 -27 -15 -31 -14 -31 9
0 21 33 29 45 11z m-471 -26 c-7 -17 -20 -20 -28 -6 -7 10 3 21 20 21 8 0 11
-6 8 -15z m1096 -6 c-12 -21 -31 -22 -37 -2 -2 6 6 13 19 16 13 2 24 5 26 6 1
0 -2 -8 -8 -20z m-467 -11 c13 -13 28 -34 32 -47 4 -13 27 -43 51 -67 25 -23
41 -45 36 -48 -5 -3 -32 22 -62 56 -47 53 -98 88 -130 88 -23 0 -7 -19 25 -30
50 -16 57 -34 11 -28 -25 3 -36 0 -36 -9 0 -9 15 -13 44 -13 26 0 48 -6 56
-15 10 -13 9 -15 -11 -17 -36 -2 -41 -2 -86 6 -26 4 -43 2 -43 -3 0 -17 77
-32 128 -25 38 5 51 3 62 -11 17 -20 7 -29 -55 -47 -63 -18 -120 -13 -171 17
-64 37 -81 93 -48 156 30 59 150 81 197 37z m142 -15 c-9 -50 -13 -52 -35 -23
-25 32 -25 35 3 48 36 17 40 14 32 -25z m849 31 c27 -10 18 -34 -19 -50 -46
-19 -65 -18 -65 4 0 14 30 37 67 51 1 1 8 -2 17 -5z m-584 -19 c0 -8 -4 -15
-10 -15 -5 0 -10 7 -10 15 0 8 5 15 10 15 6 0 10 -7 10 -15z m250 -15 c0 -7
-53 -30 -67 -30 -2 0 6 13 18 30 17 23 26 27 36 19 7 -6 13 -15 13 -19z m-880
-9 c-10 -20 -31 -31 -58 -31 -11 0 -5 10 18 29 37 31 56 32 40 2z m350 -78 c0
-22 -35 2 -59 41 -34 55 -24 64 19 17 22 -24 40 -50 40 -58z m753 66 c-3 -10
-14 -19 -24 -19 -21 0 -25 20 -8 37 17 17 38 5 32 -18z m-1535 -8 c4 -28 -13
-20 -21 9 -3 14 -1 20 6 17 7 -2 14 -14 15 -26z m926 17 c29 3 29 2 11 -18
-16 -18 -21 -19 -39 -7 -23 15 -37 45 -15 31 7 -4 27 -7 43 -6z m77 -21 c-1
-12 -15 -9 -19 4 -3 6 1 10 8 8 6 -3 11 -8 11 -12z m59 -12 c-13 -14 -27 -25
-30 -25 -4 0 -5 11 -2 25 3 19 11 25 30 25 l25 0 -23 -25z m290 -7 c-20 -66
-102 -153 -190 -198 -64 -33 -230 -55 -230 -30 0 6 5 10 10 10 6 0 22 11 35
24 18 19 37 24 87 28 41 2 84 14 123 32 70 33 59 48 -12 16 -78 -34 -197 -40
-165 -8 10 10 22 12 95 16 15 1 27 7 27 12 0 6 -12 10 -27 10 -26 1 -26 1 -8
12 10 6 43 10 72 9 63 -2 113 18 157 66 17 18 32 33 33 33 1 0 -2 -14 -7 -32z
m-490 12 c0 -5 -4 -10 -10 -10 -5 0 -10 5 -10 10 0 6 5 10 10 10 6 0 10 -4 10
-10z m439 -6 c-30 -36 -139 -72 -139 -46 0 12 56 38 105 50 22 5 42 10 44 11
2 0 -2 -6 -10 -15z m165 -7 l64 -12 -39 -65 c-22 -36 -45 -64 -52 -63 -6 1
-37 8 -68 15 l-57 13 24 35 c13 19 24 38 24 42 0 20 21 58 30 53 6 -3 39 -12
74 -18z m-1122 -36 c-14 -41 -59 -110 -94 -144 -32 -32 -42 -36 -53 -27 -31
26 -17 55 55 114 38 32 72 67 76 78 5 15 8 17 14 8 5 -7 6 -20 2 -29z m23 -43
c-9 -22 -14 -43 -11 -45 10 -10 23 8 35 49 22 71 25 75 29 37 2 -23 -6 -56
-21 -90 -26 -58 -115 -159 -141 -159 -26 0 -18 16 18 41 34 23 66 66 66 89 0
7 -18 -8 -41 -34 -22 -25 -45 -46 -50 -46 -20 0 -8 30 20 49 32 23 91 120 91
149 0 25 14 38 18 17 2 -9 -4 -34 -13 -57z m547 61 c17 -9 18 -13 7 -20 -8 -5
-26 -9 -41 -9 -41 0 -36 35 5 39 5 1 18 -4 29 -10z m182 -5 c8 -22 8 -22 -15
-35 -29 -15 -45 8 -22 33 20 22 29 23 37 2z m481 -34 c-6 -20 -93 -110 -106
-110 -9 0 55 114 79 143 14 16 17 16 25 2 4 -8 5 -24 2 -35z m-755 30 c0 -5
-5 -10 -11 -10 -5 0 -7 5 -4 10 3 6 8 10 11 10 2 0 4 -4 4 -10z m777 -67 c-8
-15 -25 -37 -37 -48 -18 -16 -16 -10 9 29 17 28 32 57 32 65 1 13 2 13 6 -1 2
-9 -2 -29 -10 -45z m-578 33 c15 -18 -27 -53 -76 -62 -31 -6 -38 -3 -58 22
l-23 29 39 6 c21 3 42 8 45 12 13 12 61 7 73 -7z m-184 -49 c14 -40 10 -44
-17 -23 -20 14 -25 70 -7 64 6 -2 17 -20 24 -41z m-765 -12 c11 -13 8 -15 -15
-15 -23 0 -26 2 -15 15 7 8 14 15 15 15 1 0 8 -7 15 -15z m60 0 c-7 -8 -17
-15 -23 -15 -6 0 -2 7 9 15 25 19 30 19 14 0z m290 -49 c-28 -59 -91 -130
-130 -146 -47 -20 -45 -6 4 25 48 30 97 91 123 152 9 21 18 33 20 26 2 -6 -6
-32 -17 -57z m192 4 c45 0 72 6 96 20 33 21 72 27 72 11 0 -4 -33 -25 -74 -46
-72 -36 -76 -37 -121 -26 -54 14 -92 36 -106 63 -10 18 -9 18 30 -1 28 -15 59
-21 103 -21z m-459 12 c-6 -23 -67 -57 -88 -48 -28 10 -13 40 21 42 17 1 40 6
50 12 11 6 20 12 21 12 0 0 -1 -8 -4 -18z m1177 -42 c0 -45 9 -84 36 -155 20
-52 41 -95 45 -95 15 0 10 32 -11 79 -24 52 -24 51 -2 51 18 0 48 37 38 47 -3
3 -12 0 -21 -7 -23 -19 -30 -4 -11 25 23 34 42 31 62 -10 9 -20 21 -38 26 -41
18 -11 19 4 4 35 -9 16 -16 38 -16 48 1 12 7 6 19 -16 11 -21 21 -30 25 -23 4
7 2 21 -4 32 -9 17 -8 20 11 20 17 0 20 -4 15 -24 -7 -29 9 -44 19 -18 6 16 7
16 20 -1 7 -10 11 -27 8 -38 -4 -14 -1 -18 10 -14 19 8 31 -23 16 -41 -10 -13
-6 -18 13 -15 3 0 15 -30 27 -67 31 -102 60 -161 96 -197 34 -34 75 -54 75
-36 0 6 6 8 13 6 7 -3 21 15 35 45 12 28 28 50 35 50 7 0 4 7 -6 15 -13 9 -17
20 -12 34 3 12 2 21 -3 21 -6 0 -16 23 -22 51 -10 42 -10 53 1 60 11 6 10 9
-4 15 -21 8 -25 84 -4 84 15 0 39 -128 25 -136 -14 -9 -9 -24 8 -24 13 0 14
-3 5 -14 -9 -10 -8 -15 3 -19 8 -3 18 -26 22 -53 5 -39 4 -50 -11 -60 -9 -7
-14 -18 -10 -23 3 -6 -6 -25 -22 -41 -41 -44 -82 -41 -138 11 -37 34 -48 55
-70 122 -14 45 -35 94 -46 109 -10 15 -19 31 -19 35 0 4 -9 23 -20 41 -30 49
-41 30 -14 -25 30 -59 32 -84 5 -59 -11 10 -25 31 -31 47 -12 28 -30 40 -30
19 0 -25 40 -87 64 -100 33 -17 36 -44 4 -35 -40 12 -68 35 -68 55 0 24 -21
70 -32 70 -11 0 -10 -17 3 -42 6 -11 8 -22 5 -25 -11 -11 -36 20 -42 53 -7 38
-24 46 -24 12 0 -30 36 -88 54 -88 8 0 19 -6 23 -14 4 -7 31 -24 58 -37 28
-13 51 -32 53 -41 6 -30 -33 -21 -74 17 -41 39 -44 41 -44 21 0 -22 68 -76 95
-76 14 0 25 -2 25 -4 0 -2 3 -11 6 -20 5 -12 0 -16 -19 -16 -14 0 -29 5 -32
10 -9 15 -25 12 -25 -4 0 -17 22 -26 62 -26 37 0 33 -24 -5 -28 -42 -5 -32
-24 11 -21 36 3 77 -14 126 -53 l21 -17 -22 -1 c-31 0 -29 -18 2 -22 30 -4 30
-23 0 -24 -31 0 -33 -19 -2 -22 26 -3 27 -5 27 -68 0 -54 -4 -67 -22 -84 -13
-12 -33 -30 -45 -42 -23 -22 -53 -19 -53 6 0 8 8 19 17 25 10 5 14 13 10 17
-12 13 -42 -10 -45 -35 -4 -28 -28 -21 -25 8 3 27 -15 27 -26 -1 -7 -19 -8
-20 -14 -3 -13 33 19 50 108 60 49 5 51 6 28 15 -28 12 -30 40 -3 40 11 0 20
5 20 10 0 6 -9 10 -20 10 -11 0 -20 7 -20 15 0 8 5 15 10 15 6 0 10 5 10 10 0
6 -8 10 -18 10 -26 0 -34 11 -20 27 16 19 1 30 -22 15 -19 -11 -20 -9 -20 29
0 23 -4 38 -10 34 -5 -3 -7 -11 -5 -18 7 -17 -11 -41 -24 -33 -6 4 -11 18 -11
31 0 30 -10 55 -22 55 -5 0 -6 -15 -2 -35 7 -39 -4 -45 -31 -18 -13 12 -15 26
-10 60 4 25 2 43 -3 43 -13 0 -22 -25 -22 -61 0 -18 -4 -28 -10 -24 -5 3 -10
32 -10 63 0 60 -17 63 -22 4 -1 -17 -8 -32 -15 -32 -7 0 -10 9 -8 22 13 67 17
168 6 168 -6 0 -11 -13 -11 -29 0 -44 -22 -131 -33 -131 -6 0 -7 19 -4 45 7
51 -10 64 -19 15 -4 -16 -8 -30 -11 -30 -8 0 -83 63 -83 70 0 4 25 12 55 19
37 8 55 17 55 28 0 8 -11 52 -24 97 -29 94 -54 223 -48 249 2 9 10 17 18 17
11 0 14 -15 14 -60z m-374 13 c-4 -4 -11 -1 -16 7 -16 25 -11 35 7 17 9 -9 13
-20 9 -24z m418 21 c8 -21 6 -74 -3 -99 -6 -15 -9 -11 -14 20 -9 56 -9 95 2
95 5 0 12 -7 15 -16z m-930 -40 c-9 -21 -20 -84 -24 -139 -4 -55 -11 -110 -15
-122 -9 -27 9 -32 20 -5 4 9 11 58 15 107 8 94 27 175 42 175 12 0 10 -88 -2
-111 -15 -27 -25 -149 -13 -149 6 0 13 28 16 61 6 74 21 94 39 54 11 -25 9
-35 -30 -109 -23 -44 -42 -86 -42 -93 0 -6 10 -15 23 -19 12 -3 35 -16 50 -27
27 -18 28 -23 22 -63 -5 -35 -3 -45 9 -50 9 -3 16 -17 16 -30 0 -13 8 -28 19
-33 10 -6 21 -22 23 -36 7 -32 -5 -32 -20 0 -7 14 -26 34 -43 43 -25 14 -29
22 -25 45 6 30 -8 36 -23 10 -7 -14 -13 -15 -21 -7 -9 9 -6 22 9 52 24 47 25
52 11 52 -5 0 -19 -19 -31 -41 -18 -37 -22 -40 -36 -27 -13 13 -13 20 1 53 9
21 14 41 10 44 -7 8 -34 -28 -34 -46 0 -15 -16 -17 -25 -3 -3 6 4 24 15 41 27
36 16 54 -11 20 -15 -18 -23 -21 -31 -13 -9 9 -7 17 7 32 21 23 13 39 -9 21
-8 -7 -20 -10 -26 -6 -7 4 0 15 16 27 36 29 69 108 45 108 -5 0 -14 -14 -20
-32 -13 -38 -39 -68 -58 -68 -22 0 -15 27 17 62 27 29 39 58 25 58 -3 0 -20
-16 -37 -35 -17 -20 -33 -33 -37 -30 -3 4 2 13 13 20 13 10 17 22 13 41 -4 24
3 35 45 72 27 25 60 67 74 94 29 58 42 59 18 2z m366 16 c0 -29 -82 -73 -125
-68 -40 5 -44 -3 -12 -25 17 -12 18 -16 6 -16 -9 -1 -28 8 -43 20 -21 17 -24
24 -15 35 6 8 21 14 33 14 11 0 48 15 81 34 63 35 75 36 75 6z m470 -7 c1 -41
17 -123 45 -220 10 -34 15 -68 12 -76 -8 -21 -227 -70 -227 -50 1 19 19 30 89
52 l74 23 -6 93 c-4 51 -11 114 -17 140 -12 54 -8 75 15 75 11 0 15 -11 15
-37z m146 26 c3 -6 -1 -18 -10 -27 -15 -15 -16 -14 -16 11 0 27 13 36 26 16z
m-546 -14 c0 -8 -4 -15 -10 -15 -5 0 -10 7 -10 15 0 8 5 15 10 15 6 0 10 -7
10 -15z m40 -6 c0 -5 -4 -9 -10 -9 -5 0 -10 7 -10 16 0 8 5 12 10 9 6 -3 10
-10 10 -16z m321 -139 c14 -117 13 -121 -65 -144 l-48 -15 7 37 c4 20 9 78 11
127 3 89 4 90 36 111 41 27 42 25 59 -116z m-701 75 c0 -20 59 -95 75 -95 16
0 19 -18 6 -38 -6 -10 -18 -3 -46 30 -41 48 -65 95 -65 130 1 22 1 22 15 4 8
-11 15 -25 15 -31z m432 -3 c59 -4 78 -8 78 -20 0 -22 -132 -12 -193 16 -57
25 -56 49 1 25 20 -8 72 -18 114 -21z m-382 9 c0 -10 11 -30 26 -46 27 -29 27
-39 1 -29 -18 6 -57 64 -57 83 0 6 7 11 15 11 8 0 15 -8 15 -19z m536 -20
c-11 -17 -57 -14 -50 3 7 17 35 26 48 15 4 -4 5 -12 2 -18z m-281 -11 c37 -18
72 -25 132 -28 77 -4 81 -5 86 -29 6 -33 -8 -37 -84 -23 -79 14 -138 42 -175
82 -16 17 -24 29 -19 26 6 -2 33 -15 60 -28z m20 -69 c25 -12 79 -27 120 -33
78 -12 83 -16 66 -62 -9 -23 -12 -24 -48 -14 -72 20 -150 67 -197 118 -51 57
-64 89 -17 42 17 -16 50 -39 76 -51z m-104 23 c44 -64 146 -128 257 -160 10
-3 9 -11 -5 -34 -13 -23 -22 -28 -38 -24 -82 26 -170 102 -223 195 -18 31 -32
59 -32 63 0 14 11 4 41 -40z m369 1 c0 -14 -8 -29 -19 -34 -16 -9 -20 -6 -25
15 -8 31 -1 44 25 44 14 0 19 -7 19 -25z m-843 -50 c8 -22 -6 -33 -17 -15 -13
20 -12 30 0 30 6 0 13 -7 17 -15z m264 -76 c-25 -64 -26 -79 -7 -79 19 0 29
-17 22 -35 -4 -11 -13 -10 -45 8 -23 12 -41 25 -41 30 0 4 16 39 36 78 42 85
67 84 35 -2z m569 44 c0 -39 -13 -63 -32 -63 -17 0 -19 5 -13 33 9 41 13 47
31 47 8 0 14 -8 14 -17z m-315 -106 c33 -44 69 -91 79 -105 l20 -25 -30 -23
c-16 -13 -34 -24 -40 -24 -14 0 -45 70 -80 181 -37 118 -37 117 -22 95 7 -10
40 -55 73 -99z m-208 47 c-8 -21 -21 -40 -30 -42 -14 -3 -14 3 5 48 24 59 45
54 25 -6z m101 -54 c6 -47 14 -109 17 -138 l6 -53 -28 3 c-27 3 -28 5 -23 48
3 25 5 91 4 148 -1 118 9 115 24 -8z m-65 33 c-9 -107 -32 -162 -49 -120 -4
13 42 177 51 177 2 0 1 -26 -2 -57z m289 -53 l58 -28 -21 -26 c-11 -14 -25
-26 -30 -26 -8 0 -129 146 -129 157 0 2 15 -8 33 -23 17 -15 58 -39 89 -54z
m171 44 c5 -5 -15 -57 -28 -72 -1 -1 -12 1 -23 5 l-22 8 20 33 c19 30 39 40
53 26z m-299 -183 c10 -15 -9 -31 -36 -31 -17 0 -19 9 -34 165 -4 50 -4 50 29
-35 18 -47 37 -92 41 -99z m-140 70 c-6 -70 -16 -87 -28 -55 -6 16 23 138 31
130 2 -2 1 -36 -3 -75z m590 40 c16 -18 16 -22 2 -49 -9 -17 -29 -39 -46 -49
-16 -9 -30 -24 -30 -31 0 -19 45 9 81 50 l27 29 15 -44 c12 -37 13 -48 1 -75
-7 -18 -19 -32 -27 -32 -7 0 -22 -7 -33 -16 -18 -15 -18 -15 9 -11 35 5 34 -7
-2 -65 -32 -51 -66 -78 -95 -78 -11 0 -30 -10 -43 -22 -19 -18 -28 -20 -41
-12 -25 16 -26 41 -3 49 26 8 27 25 2 25 -20 0 -51 -25 -51 -41 0 -5 -4 -9
-10 -9 -19 0 -10 35 12 49 12 7 51 15 87 17 35 2 69 8 75 14 11 11 6 13 -43
10 -43 -2 -33 16 14 24 32 6 53 22 42 32 -2 2 -16 0 -31 -5 -14 -6 -26 -7 -26
-3 0 15 16 29 50 42 43 17 90 48 90 61 0 15 -22 10 -44 -10 -12 -11 -33 -22
-47 -26 -24 -6 -27 -3 -32 27 -3 18 -8 40 -12 50 -4 11 0 18 12 22 27 9 79 53
71 61 -3 4 -24 -6 -47 -20 -41 -28 -71 -28 -71 0 0 8 0 18 -1 23 0 4 26 12 58
18 32 6 61 12 64 13 3 0 14 -8 23 -18z m-197 -28 c3 -7 -11 -29 -30 -50 -35
-37 -35 -38 -56 -19 l-21 20 32 33 c32 33 67 41 75 16z m-608 -104 l61 -56
-32 -44 c-43 -60 -95 -119 -136 -151 -38 -31 -65 -37 -56 -13 11 27 -8 16 -43
-25 -41 -47 -49 -49 -57 -14 -5 19 -2 30 11 39 10 7 15 16 11 20 -12 12 -48
-15 -54 -40 -8 -34 -19 -31 -21 5 -2 24 4 33 28 46 19 9 41 13 60 9 29 -7 41
8 17 19 -7 3 -1 4 15 1 29 -6 34 3 15 24 -11 11 -9 13 7 8 11 -2 28 -8 38 -12
27 -11 20 14 -8 27 -34 15 -22 28 20 21 44 -7 47 12 4 21 -17 3 -28 10 -24 16
9 14 31 12 67 -6 23 -12 29 -13 26 -2 -2 7 -18 20 -36 28 -42 20 -41 33 3 24
43 -8 48 12 5 21 -17 4 -27 11 -24 17 3 5 15 8 25 5 26 -7 34 10 8 18 -13 4
-18 12 -15 22 3 8 6 19 6 25 0 15 13 7 79 -53z m143 29 c-9 -9 -12 -7 -12 12
0 19 3 21 12 12 9 -9 9 -15 0 -24z m362 -7 c16 -18 15 -20 -22 -49 l-39 -31
-22 23 -22 23 43 26 c24 15 43 26 44 27 0 0 9 -8 18 -19z m-311 -57 c-3 -8 -9
-14 -13 -14 -15 0 -32 30 -26 46 6 15 8 15 26 -1 10 -9 16 -23 13 -31z m201
-9 c22 -33 22 -33 -23 -46 -52 -15 -71 -7 -71 30 0 30 2 31 66 40 7 0 19 -10
28 -24z m-113 -23 l7 -33 -42 3 c-35 3 -41 6 -38 23 6 40 12 46 39 43 22 -2
29 -10 34 -36z m4 -62 c-8 -13 -55 -13 -75 0 -11 7 -2 10 33 10 30 0 46 -4 42
-10z m61 -52 c-2 -29 -4 -64 -5 -77 -1 -16 -5 -21 -16 -18 -8 4 -17 2 -21 -4
-3 -6 3 -13 15 -16 12 -3 21 -12 21 -20 0 -11 -7 -13 -30 -8 -34 7 -42 -10
-10 -20 25 -8 25 -14 -3 -56 -27 -41 -77 -54 -77 -20 0 11 8 24 17 30 10 5 14
13 10 17 -11 12 -41 -10 -45 -32 -6 -29 -20 -40 -34 -26 -9 9 -7 17 11 36 13
14 18 27 13 30 -6 3 -22 -8 -36 -25 -15 -17 -30 -28 -34 -25 -10 10 12 39 39
53 13 7 28 19 34 27 6 8 22 16 35 19 l25 4 -22 8 c-35 11 -28 28 8 21 22 -4
29 -2 27 7 -3 6 -17 13 -31 15 -20 2 -27 9 -27 24 0 18 5 20 40 15 41 -5 57
10 20 20 -19 5 -17 8 15 30 19 13 35 28 35 33 0 6 7 10 15 10 11 0 14 -11 11
-52z m-107 22 c11 0 10 -5 -4 -20 -17 -19 -64 -27 -78 -13 -13 12 26 44 48 39
11 -3 26 -6 34 -6z"/>
<path d="M186 1261 c-3 -5 9 -11 27 -14 36 -5 42 -3 32 12 -8 13 -52 15 -59 2z"/>
<path d="M150 1211 c0 -16 18 -22 45 -15 20 5 24 9 15 18 -8 8 -13 7 -19 -3
-6 -9 -11 -10 -15 -2 -9 13 -26 15 -26 2z"/>
<path d="M291 1201 c-8 -5 -11 -16 -6 -30 10 -32 28 -26 21 7 -6 26 -6 26 9 8
16 -22 31 -16 22 9 -7 17 -25 19 -46 6z"/>
<path d="M230 1183 c1 -4 12 -21 25 -38 30 -36 47 -25 19 12 -20 27 -44 42
-44 26z"/>
<path d="M180 1161 c0 -5 7 -11 15 -15 8 -3 20 -17 27 -31 12 -27 28 -34 28
-11 0 20 -39 66 -56 66 -8 0 -14 -4 -14 -9z"/>
<path d="M1508 625 c-5 -25 3 -40 16 -28 9 10 7 53 -3 53 -5 0 -11 -11 -13
-25z"/>
<path d="M1550 588 c0 -19 2 -20 10 -8 13 19 13 30 0 30 -5 0 -10 -10 -10 -22z"/>
<path d="M410 845 c-7 -9 -10 -18 -7 -22 8 -7 37 15 37 28 0 14 -16 11 -30 -6z"/>
<path d="M1990 46 c0 -33 -2 -35 -37 -39 l-38 -4 43 -1 42 -2 0 40 c0 22 -2
40 -5 40 -3 0 -5 -15 -5 -34z"/>
<path d="M18 3 c12 -2 30 -2 40 0 9 3 -1 5 -23 4 -22 0 -30 -2 -17 -4z"/>
</g>
</svg>
