<?xml version="1.0" standalone="no"?>
<!DOCTYPE svg PUBLIC "-//W3C//DTD SVG 20010904//EN"
 "http://www.w3.org/TR/2001/REC-SVG-20010904/DTD/svg10.dtd">
<svg version="1.0" xmlns="http://www.w3.org/2000/svg"
 width="354.000000pt" height="97.000000pt" viewBox="0 0 354.000000 97.000000"
 preserveAspectRatio="xMidYMid meet">

<g transform="translate(0.000000,97.000000) scale(0.100000,-0.100000)"
fill="#000000" stroke="none">
<path d="M1580 534 l0 -265 53 3 52 3 3 122 3 122 30 25 c33 28 46 31 69 16
12 -7 16 -38 18 -150 l4 -140 54 0 54 0 0 143 c0 163 -15 213 -69 241 -34 18
-97 21 -135 6 l-26 -10 0 75 0 75 -55 0 -55 0 0 -266z m70 134 l0 -102 28 26
c38 36 65 48 105 48 78 0 107 -61 107 -229 l0 -101 -25 0 -25 0 0 119 c0 105
-2 121 -21 145 -30 39 -79 36 -127 -8 l-37 -34 -3 -111 c-3 -101 -5 -111 -23
-111 -18 0 -19 10 -19 230 0 223 1 230 20 230 19 0 20 -7 20 -102z"/>
<path d="M2150 535 l0 -265 55 0 55 0 0 265 0 265 -55 0 -55 0 0 -265z m78
203 c-2 -25 -8 -33 -23 -33 -20 0 -31 25 -21 51 3 8 15 14 26 14 18 0 21 -5
18 -32z m2 -268 l0 -160 -25 0 -25 0 0 160 0 160 25 0 25 0 0 -160z"/>
<path d="M395 778 c-3 -7 -4 -124 -3 -258 l3 -245 55 0 55 0 3 83 3 82 37 0
c36 0 39 -3 90 -85 l54 -85 59 0 c41 0 59 4 59 13 0 6 -25 50 -54 96 l-54 85
25 19 c54 43 70 149 32 216 -11 20 -36 48 -56 61 -34 23 -47 25 -170 28 -105
3 -134 1 -138 -10z m291 -47 c84 -51 81 -189 -6 -239 l-28 -16 54 -83 54 -83
-28 0 c-23 1 -34 12 -76 80 l-49 80 -68 0 -69 0 0 -80 c0 -73 -2 -80 -20 -80
-19 0 -20 7 -20 220 l0 220 113 0 c92 0 117 -3 143 -19z"/>
<path d="M470 610 l0 -100 86 0 c81 0 87 1 115 29 39 40 41 109 4 146 -22 23
-32 25 -115 25 l-90 0 0 -100z m184 48 c17 -24 21 -65 8 -84 -14 -22 -51 -34
-101 -34 l-51 0 0 70 0 70 64 0 c56 0 67 -3 80 -22z"/>
<path d="M2510 725 c0 -52 -1 -55 -25 -55 -23 0 -25 -3 -25 -50 0 -47 2 -50
25 -50 l25 0 0 -119 c0 -136 12 -165 76 -177 36 -7 120 11 130 28 7 11 -15
108 -24 108 -4 0 -16 -7 -26 -15 -40 -31 -46 -21 -46 80 l0 95 40 0 40 0 0 50
0 50 -40 0 -40 0 0 55 0 55 -55 0 -55 0 0 -55z m80 -40 l0 -55 35 0 c24 0 35
-5 35 -15 0 -10 -11 -15 -35 -15 l-35 0 0 -119 c0 -133 6 -145 60 -135 27 6
32 4 29 -11 -5 -21 -52 -37 -86 -29 -45 12 -53 39 -53 171 0 116 -1 123 -20
123 -11 0 -20 7 -20 15 0 8 9 15 20 15 18 0 20 7 20 55 0 52 1 55 25 55 24 0
25 -3 25 -55z"/>
<path d="M1080 651 c-80 -43 -124 -143 -101 -228 25 -94 98 -152 190 -153 160
-1 248 182 155 322 -47 73 -165 102 -244 59z m183 -44 c97 -74 85 -230 -23
-285 -104 -54 -216 9 -228 127 -2 27 -2 61 2 75 8 34 54 86 91 102 45 21 117
12 158 -19z"/>
<path d="M1106 579 c-74 -58 -74 -160 0 -218 85 -67 205 34 174 147 -21 82
-113 119 -174 71z m115 -38 c54 -54 30 -150 -42 -166 -40 -10 -91 38 -92 87
-3 92 75 138 134 79z"/>
</g>
</svg>
